<?xml version="1.0" encoding="utf-8"?>
<!-- Generator: Adobe Illustrator 23.0.4, SVG Export Plug-In . SVG Version: 6.00 Build 0)  -->
<svg version="1.1" id="Layer_1" xmlns="http://www.w3.org/2000/svg" xmlns:xlink="http://www.w3.org/1999/xlink" x="0px" y="0px"
	 viewBox="0 0 3677.2 3679.2" style="enable-background:new 0 0 3677.2 3679.2;" xml:space="preserve">
<style type="text/css">
	.st0{fill:none;stroke:#9E9E9E;stroke-width:0.217;stroke-miterlimit:10;stroke-dasharray:2.591,1.722;}
	.st1{fill:#00AA13;}
</style>
<title>Gojek_LogoArtboard 2</title>
<line class="st0" x1="76.1" y1="2.7" x2="3624.7" y2="2.7"/>
<path class="st1" d="M1449.6,1839.7c0-215.6,174.7-390.3,390.3-390.3s390.3,174.8,390.3,390.3c0,215.6-174.8,390.3-390.3,390.3
	C1624.3,2230,1449.6,2055.2,1449.6,1839.7"/>
<path class="st1" d="M1839.9,798.8C1265,798.8,799,1264.8,799,1839.7c0,431.5,260.6,799.9,639,960.2c21,8.9,48.6,15.1,75.3,15.1
	c107.8,0,195.2-87.4,195.2-195.2c0-81.1-49.4-150.5-119.8-180v-0.1c-234.5-98.3-399.4-329.8-399.4-600.1
	c0-359.3,291.3-650.6,650.6-650.6s650.6,291.3,650.6,650.6c0,270.2-164.8,501.8-399.4,600.1v0.1c-70.3,29.5-119.8,98.9-119.8,180
	c0,107.8,87.4,195.2,195.2,195.2c26.7,0,54.3-6.3,75.3-15.1c378.4-160.3,639-528.7,639-960.2
	C2880.8,1264.8,2414.8,798.8,1839.9,798.8"/>
</svg>
